<?xml version="1.0" standalone="no"?>
<!DOCTYPE svg PUBLIC "-//W3C//DTD SVG 20010904//EN"
 "http://www.w3.org/TR/2001/REC-SVG-20010904/DTD/svg10.dtd">
<svg version="1.0" xmlns="http://www.w3.org/2000/svg"
 width="500.000000pt" height="500.000000pt" viewBox="0 0 500.000000 500.000000"
 preserveAspectRatio="xMidYMid meet">
<metadata>
Created by potrace 1.16, written by Peter Selinger 2001-2019
</metadata>
<g transform="translate(0.000000,500.000000) scale(0.100000,-0.100000)"
fill="#af8c5f" stroke="none">
<path d="M2325 4745 c-332 -52 -600 -189 -841 -430 -283 -282 -426 -610 -441
-1010 -9 -259 25 -425 88 -425 28 0 31 30 14 126 -22 122 -22 352 0 479 34
203 118 408 239 585 67 99 240 272 344 344 489 342 1127 347 1627 14 102 -68
259 -219 340 -327 125 -166 227 -402 260 -601 25 -151 20 -142 63 -138 l37 3
-2 55 c-6 130 -62 329 -138 485 -214 442 -626 752 -1110 835 -136 23 -352 26
-480 5z"/>
<path d="M2542 4480 c-5 -14 -12 -43 -16 -65 -15 -82 -42 -150 -71 -180 -24
-23 -63 -40 -166 -73 -154 -49 -253 -92 -262 -115 -12 -32 34 -171 123 -372
50 -111 64 -163 141 -495 35 -151 43 -203 44 -285 0 -85 -4 -107 -24 -148 -13
-27 -35 -55 -48 -64 -22 -14 -28 -14 -81 6 -239 93 -299 105 -365 78 -95 -40
-78 -135 44 -253 104 -99 178 -148 261 -173 62 -18 81 -29 106 -60 46 -57 90
-67 219 -45 98 16 110 16 208 0 128 -21 168 -13 217 43 25 29 49 43 103 60 87
28 119 46 210 121 180 150 215 269 89 310 -57 19 -122 7 -274 -50 l-140 -53
-30 28 c-71 68 -83 197 -36 395 15 63 40 176 55 250 33 157 55 224 117 363 57
126 116 301 112 330 -5 34 -58 62 -224 116 -85 28 -169 59 -185 68 -37 22 -63
76 -85 173 -9 41 -20 84 -24 95 -7 19 -8 19 -18 -5z m139 -355 c81 -31 212
-115 235 -151 15 -22 14 -28 -14 -87 -32 -70 -206 -281 -225 -274 -7 2 -20 17
-30 34 -17 30 -17 31 8 61 38 45 66 117 72 181 4 45 1 68 -17 109 -55 127
-181 161 -270 72 -87 -87 -87 -243 0 -352 36 -44 36 -48 9 -82 -13 -17 -25
-23 -34 -18 -8 4 -52 51 -97 103 -91 106 -145 202 -134 240 11 42 120 115 263
175 34 14 71 36 83 49 l21 22 30 -28 c16 -15 61 -40 100 -54z"/>
<path d="M3886 3330 c-192 -30 -376 -114 -376 -171 0 -27 44 -66 83 -75 l31
-7 -64 -31 c-75 -36 -84 -55 -44 -97 30 -32 91 -55 172 -65 l52 -7 -48 -22
c-62 -29 -82 -67 -54 -104 20 -27 102 -65 183 -84 54 -13 65 -27 20 -27 -79 0
-290 -82 -315 -122 -28 -45 54 -83 212 -97 l97 -8 -85 -2 c-220 -4 -379 -32
-415 -71 -17 -18 -17 -21 -1 -46 10 -14 32 -32 49 -39 47 -19 179 -45 269 -52
44 -3 75 -9 71 -13 -4 -4 -48 -12 -98 -18 -144 -19 -288 -60 -298 -86 -9 -23
17 -60 57 -82 66 -37 148 -49 339 -49 l178 1 -7 -36 c-11 -60 -10 -65 31 -85
48 -23 163 -32 221 -16 22 6 58 26 81 45 l40 35 23 -24 c39 -42 104 -60 210
-60 147 1 183 30 144 117 -17 38 -17 39 8 66 41 44 58 87 58 148 0 55 -1 58
-54 110 -67 67 -123 93 -198 94 -48 0 -63 5 -90 28 -78 66 -127 78 -183 43
-20 -12 -42 -16 -64 -13 l-33 5 50 16 c58 20 101 46 109 67 15 41 -60 107
-145 129 l-47 13 45 5 c25 4 80 9 122 12 94 7 185 29 218 54 35 25 39 75 7 95
-53 35 -335 84 -497 87 l-55 1 68 18 c99 26 172 58 198 86 22 23 22 27 9 52
-9 15 -26 31 -38 37 -26 12 -29 25 -4 25 33 0 119 58 131 88 19 44 -7 87 -67
114 -55 24 -209 33 -306 18z m270 -61 c67 -12 99 -33 73 -50 -21 -13 -49 -11
-110 8 -115 36 -327 13 -486 -52 -44 -18 -58 -28 -57 -44 0 -16 -3 -18 -18
-10 -47 25 -10 59 108 98 167 56 349 75 490 50z m79 -489 c91 -11 163 -27 179
-41 22 -19 -97 -52 -234 -64 -77 -7 -65 6 23 26 58 12 87 31 68 44 -6 3 -63
12 -126 19 -64 8 -119 17 -122 20 -10 9 113 7 212 -4z m-162 -181 c83 -17 69
-26 -23 -15 -75 9 -83 8 -151 -19 -78 -30 -187 -43 -256 -30 l-38 7 30 16 c38
20 133 34 155 22 11 -6 44 -2 91 9 90 23 119 24 192 10z m245 -218 c49 -36 59
-62 39 -104 -16 -33 -33 -127 -24 -127 3 0 13 25 22 56 22 75 60 114 112 114
51 -1 108 -29 166 -83 44 -42 47 -48 47 -93 0 -62 -31 -117 -88 -161 -84 -64
-144 -62 -172 6 -7 17 -16 31 -21 31 -14 0 -11 -8 18 -61 23 -42 30 -49 57
-49 17 0 51 9 75 20 49 23 63 17 80 -31 9 -27 8 -30 -19 -44 -39 -20 -198 -20
-245 -1 -19 8 -47 27 -61 41 -22 22 -24 29 -13 36 10 6 5 9 -16 9 -24 0 -33
-7 -46 -33 -27 -54 -70 -72 -174 -72 -69 0 -97 4 -117 17 -24 16 -25 20 -16
57 10 40 11 40 37 27 14 -8 44 -19 66 -25 49 -13 76 2 105 59 30 58 24 73 -7
17 -31 -56 -57 -66 -116 -46 -95 31 -167 113 -167 187 0 42 4 50 51 95 121
117 219 114 270 -8 12 -30 26 -55 30 -55 8 0 -24 92 -47 133 -14 25 -14 30 1
53 21 33 73 64 106 64 14 0 44 -13 67 -29z m-215 -31 c-4 -4 -141 -13 -303
-19 -281 -11 -420 -8 -420 10 0 15 92 22 214 16 66 -3 207 -3 311 1 190 7 214
6 198 -8z"/>
<path d="M4175 2110 c-17 -32 -16 -75 0 -114 6 -14 5 -17 -3 -12 -24 14 -11
-12 13 -28 42 -27 58 -21 52 19 -6 35 6 49 17 20 7 -20 36 -19 52 3 11 14 12
11 7 -25 -3 -24 -2 -43 2 -43 13 0 77 52 71 57 -3 3 -13 0 -23 -8 -16 -13 -16
-13 0 11 21 30 22 89 2 116 -13 17 -14 16 -8 -18 6 -40 -11 -54 -22 -19 -4 14
-12 17 -28 13 -12 -3 -25 -10 -29 -16 -6 -8 -11 -7 -17 3 -16 25 -52 20 -64
-8 l-11 -26 -4 27 c-2 15 2 37 8 48 6 12 9 24 7 27 -3 3 -13 -10 -22 -27z"/>
<path d="M790 3141 c0 -16 4 -41 10 -55 5 -14 6 -26 2 -26 -4 0 -33 20 -64 45
l-58 45 -6 -25 c-4 -17 2 -39 20 -71 25 -45 25 -46 3 -32 -12 8 -31 29 -42 46
-30 47 -86 41 -70 -8 4 -12 15 -20 28 -20 12 -1 38 -15 57 -32 21 -19 27 -28
15 -23 -28 10 -160 19 -180 11 -19 -7 -10 -28 37 -88 16 -21 25 -38 19 -38 -6
0 -18 11 -27 25 -19 28 -36 32 -54 10 -15 -18 2 -45 30 -45 10 0 35 -8 56 -17
38 -17 38 -17 12 -21 -15 -2 -38 4 -51 13 -22 14 -26 14 -48 -4 -20 -16 -22
-23 -13 -38 15 -24 42 -28 63 -9 14 13 28 14 77 7 32 -5 52 -9 43 -10 -48 -3
-108 -93 -109 -161 0 -60 15 -67 41 -21 28 50 90 84 146 79 l38 -3 -32 -18
c-48 -25 -41 -37 22 -37 63 0 150 28 207 65 49 33 58 32 25 -3 -28 -29 -50
-112 -40 -150 8 -32 23 -16 23 24 0 73 51 124 124 124 72 0 112 -37 122 -113
7 -50 -6 -82 -36 -92 -23 -7 -27 -35 -5 -35 18 0 20 -26 3 -36 -7 -4 -33 -6
-59 -5 -39 2 -49 -1 -59 -18 -13 -26 4 -36 50 -29 36 5 38 -1 7 -31 -15 -13
-30 -19 -40 -15 -12 4 -17 1 -17 -10 0 -19 -30 -36 -64 -36 -22 0 -26 4 -26
30 0 17 -5 30 -11 30 -6 0 -16 -13 -22 -30 -13 -33 -19 -35 -82 -19 -98 25
-178 138 -191 271 -4 37 -9 68 -12 68 -11 0 -31 -36 -32 -57 0 -13 -6 -23 -12
-23 -7 0 0 -11 15 -25 15 -14 27 -34 27 -43 0 -58 101 -188 159 -207 12 -4 21
-10 19 -13 -26 -51 -30 -63 -24 -69 3 -4 21 8 39 25 30 29 39 32 93 32 34 0
83 7 109 15 27 8 50 13 52 12 1 -2 -6 -26 -17 -54 -30 -78 -35 -142 -16 -205
9 -31 23 -61 31 -68 14 -12 14 -15 -1 -31 -22 -24 -10 -41 21 -29 20 8 32 4
61 -15 49 -33 134 -64 188 -67 25 -2 46 -4 46 -5 0 -1 -11 -13 -25 -27 -14
-14 -25 -37 -25 -52 0 -23 3 -25 27 -19 40 10 79 41 93 75 8 19 22 32 39 36
14 3 31 7 38 9 6 2 14 -3 17 -11 8 -22 46 -18 46 6 0 15 12 23 51 34 73 22 98
6 38 -24 -68 -35 -191 -159 -256 -259 -1 -2 -9 4 -18 13 -9 9 -28 16 -41 16
-36 0 -29 -40 9 -58 36 -17 24 -32 -32 -39 -47 -6 -45 -23 2 -23 l32 -1 -24
-19 c-30 -26 -87 -26 -130 1 -18 11 -35 18 -38 15 -11 -11 30 -65 61 -80 39
-18 97 -11 141 18 30 20 35 20 35 1 0 -22 34 -86 64 -121 21 -26 22 -32 10
-49 -14 -18 -20 -65 -8 -65 18 0 44 24 44 40 0 26 2 25 52 -7 37 -25 50 -28
122 -27 141 3 196 8 196 19 0 6 9 18 20 28 21 17 27 47 10 47 -5 0 -25 -11
-45 -24 -45 -31 -132 -50 -201 -44 -60 5 -134 45 -167 90 l-21 28 22 23 c12
13 22 26 22 30 0 14 -41 7 -46 -8 -9 -23 -20 -18 -32 13 -23 58 -24 72 -8 72
9 0 16 5 16 10 0 6 -7 10 -15 10 -15 0 -14 22 5 75 7 18 8 18 15 -5 8 -27 43
-70 57 -70 17 0 7 59 -18 95 -27 40 -26 68 3 63 12 -2 18 3 18 17 0 23 12 45
25 45 6 0 5 -11 0 -26 -14 -37 -12 -99 4 -139 25 -59 107 -91 170 -66 17 7 14
11 -25 39 -116 79 -148 194 -73 263 24 21 26 22 19 4 -16 -39 -11 -70 10 -70
23 0 33 34 13 46 -21 14 33 60 80 69 l41 7 -30 -29 c-34 -35 -36 -52 -9 -93
11 -17 20 -47 20 -69 0 -37 1 -38 28 -31 15 3 40 13 56 21 16 8 30 14 31 14 1
0 -4 -22 -11 -49 -7 -28 -9 -62 -5 -77 11 -41 68 -83 125 -90 l48 -7 -31 43
c-38 52 -39 87 -7 155 l23 50 13 -27 c7 -15 27 -34 45 -43 64 -30 235 -11 235
26 0 7 -41 52 -90 101 -50 48 -90 90 -90 93 0 3 36 5 80 5 54 0 79 -4 78 -11
-2 -6 17 -22 41 -35 49 -26 81 -52 81 -65 0 -11 -27 -1 -73 28 -22 14 -41 22
-44 20 -12 -13 63 -78 113 -97 30 -11 57 -20 59 -20 11 0 4 61 -12 109 -15 48
-52 92 -85 103 -8 3 -2 14 18 31 39 33 82 95 93 135 14 48 -4 47 -32 0 -28
-48 -103 -125 -113 -116 -13 14 11 55 64 110 62 65 57 74 -14 26 -53 -37 -84
-86 -84 -135 l0 -33 -52 0 c-29 0 -70 -4 -90 -9 -44 -10 -56 -3 -27 17 15 11
36 13 85 7 l64 -7 0 27 c0 81 -98 144 -156 100 -29 -22 -34 -18 -34 26 0 33 6
47 32 71 26 24 29 31 17 39 -46 30 -115 21 -164 -22 -41 -36 -59 -84 -49 -136
l6 -38 -44 43 c-24 23 -49 42 -55 42 -6 0 -20 -11 -31 -25 -11 -14 -22 -25
-25 -25 -2 0 -7 39 -10 86 -5 92 -16 116 -45 98 -28 -18 -26 -74 4 -140 39
-83 39 -83 0 -41 -59 66 -80 121 -81 212 0 44 6 102 14 128 8 26 11 50 7 54
-10 11 -57 -20 -71 -47 -13 -24 -14 -24 -21 -5 -8 19 -9 18 -15 -5 -11 -40
-10 -171 2 -214 14 -49 77 -118 145 -157 30 -17 54 -34 54 -39 0 -5 3 -16 7
-26 5 -14 -4 -11 -46 12 -104 56 -172 139 -198 239 -7 27 -8 25 -11 -21 -5
-79 24 -152 76 -191 43 -33 43 -33 19 -42 -83 -32 -214 -53 -270 -44 l-37 6
48 22 c102 47 153 120 138 198 -6 35 -40 87 -56 87 -15 0 -18 -55 -4 -89 41
-97 -12 -156 -166 -186 l-35 -7 38 35 c40 37 50 80 21 91 -24 9 -46 -13 -40
-40 9 -34 -32 -59 -81 -49 -48 9 -119 80 -128 128 -9 49 10 107 51 155 61 72
225 178 262 170 11 -3 -3 -14 -38 -32 -30 -16 -73 -41 -95 -56 -54 -38 -155
-135 -155 -151 0 -8 9 -5 23 8 32 30 70 47 178 81 130 40 165 58 189 97 25 41
25 55 0 55 -27 0 -26 5 15 53 40 46 42 54 18 74 -16 13 -9 14 55 9 79 -7 87 0
47 39 -16 16 -36 25 -57 25 -47 0 -68 15 -33 24 22 6 25 9 15 21 -7 8 -23 15
-36 15 -13 0 -24 5 -24 10 0 6 3 10 8 10 4 0 20 12 35 26 28 26 50 28 97 9 9
-3 24 1 35 9 20 14 20 14 0 36 -11 12 -18 32 -17 45 2 16 -3 25 -17 30 -40 12
-23 28 22 21 48 -7 73 8 61 37 -10 26 -37 30 -56 8 -9 -12 -25 -21 -36 -21
-23 0 -52 30 -52 53 0 12 -9 17 -30 17 -25 0 -30 4 -30 25 0 25 -1 25 -27 12
-14 -8 -38 -32 -53 -53 -28 -41 -70 -62 -55 -28 12 29 19 134 8 134 -11 0
-107 -99 -120 -124 -9 -16 -11 -14 -17 15 -3 19 -15 45 -26 59 -19 25 -19 25
-34 5 -8 -11 -18 -31 -21 -45 -3 -14 -15 -31 -26 -38 -18 -11 -27 -5 -94 62
-40 42 -98 90 -127 107 -72 44 -106 76 -113 110 -9 40 -25 46 -25 10z m-142
-176 c73 -15 327 -106 375 -133 25 -15 36 -32 20 -32 -5 0 -43 7 -86 15 -92
17 -105 18 -92 6 6 -4 39 -14 75 -21 36 -6 74 -17 84 -22 18 -10 18 -11 1 -20
-10 -6 -46 -11 -79 -11 -117 0 -285 71 -368 156 -77 78 -63 90 70 62z m841
-156 c18 -24 21 -36 14 -53 -16 -34 -5 -46 42 -46 24 0 47 -4 50 -10 4 -6 -13
-10 -42 -10 -50 0 -160 -32 -200 -57 -22 -15 -43 -11 -43 7 0 6 32 26 70 45
39 19 70 40 70 45 0 11 -78 -21 -128 -52 -44 -27 -55 -14 -14 18 18 14 58 52
89 85 32 32 60 59 63 59 4 0 17 -14 29 -31z m-650 -73 c53 -13 88 -27 81 -31
-6 -4 -57 -4 -113 -1 -122 8 -157 -1 -209 -51 -39 -38 -46 -35 -27 14 13 34
47 72 74 83 35 15 98 11 194 -14z m564 -209 c29 -27 47 -52 47 -66 0 -31 -27
-91 -41 -91 -23 0 -80 42 -94 70 -17 33 -19 88 -5 110 8 12 10 12 16 -3 9 -24
27 -21 19 3 -10 31 6 24 58 -23z m747 -422 c0 -3 -8 -18 -17 -32 -14 -21 -19
-54 -22 -140 -2 -62 -7 -113 -12 -113 -12 0 -49 75 -49 100 0 11 -5 20 -11 20
-7 0 -9 -10 -5 -27 15 -63 15 -66 -5 -24 -44 92 -32 161 34 201 29 18 87 28
87 15z m-214 -167 c65 -69 106 -120 100 -125 -7 -7 -74 35 -118 75 -24 22 -38
29 -38 20 0 -18 42 -58 98 -93 24 -14 41 -29 38 -32 -3 -3 -20 4 -39 16 -19
11 -46 21 -59 21 -27 0 -72 31 -88 59 -7 14 -2 28 21 60 17 22 34 41 38 41 4
0 25 -19 47 -42z m44 -163 c17 -9 30 -17 30 -18 0 -1 -17 -1 -37 1 -22 2 -46
-3 -57 -11 -16 -12 -11 -13 43 -9 39 3 61 1 61 -6 0 -14 -51 -53 -122 -92
l-58 -31 0 23 c0 13 -9 34 -20 48 -33 42 -20 84 30 103 30 11 102 7 130 -8z
m260 -86 c44 -39 80 -77 80 -84 0 -32 -109 -33 -170 -2 -45 22 -59 48 -46 84
5 12 13 9 41 -16 53 -46 63 -37 16 14 -40 43 -46 75 -15 75 7 0 49 -32 94 -71z"/>
<path d="M3170 1969 c-197 -99 -413 -146 -688 -149 -1 0 10 -19 25 -41 l27
-42 116 6 c197 9 384 59 577 154 136 67 144 75 113 108 -13 14 -31 24 -39 23
-9 -1 -68 -27 -131 -59z"/>
<path d="M3790 1804 c12 -29 14 -324 3 -324 -15 0 -103 76 -128 110 -27 37
-59 59 -87 60 -28 0 -29 -16 -3 -61 16 -29 28 -73 35 -131 6 -48 12 -93 15
-100 2 -7 9 -32 15 -55 16 -65 30 -51 30 30 0 72 14 147 28 147 4 0 29 -22 55
-48 45 -46 47 -50 47 -107 0 -77 11 -165 20 -165 23 0 38 95 60 395 13 169 10
184 -45 239 -42 43 -58 46 -45 10z"/>
<path d="M2994 1725 c-12 -7 -63 -21 -115 -29 -52 -9 -110 -20 -129 -26 -19
-5 -59 -10 -87 -10 -69 0 -69 -17 -3 -69 75 -59 85 -60 134 -12 43 42 116 80
116 60 0 -23 -97 -154 -164 -221 -39 -39 -90 -79 -113 -89 -24 -10 -43 -23
-43 -28 0 -5 14 -21 30 -35 l31 -26 37 20 c45 25 118 26 193 4 82 -24 241
-108 372 -195 92 -62 123 -77 145 -74 15 3 63 10 107 16 104 14 156 27 177 46
28 25 12 33 -62 33 -143 0 -275 39 -441 129 -153 83 -243 118 -340 134 l-84
13 80 77 c44 42 123 107 175 145 52 38 96 76 98 84 3 16 -38 51 -73 62 -12 3
-30 0 -41 -9z"/>
<path d="M3134 1705 c-8 -19 10 -42 49 -62 l30 -15 -6 -154 c-4 -89 -3 -164 3
-178 5 -14 23 -32 41 -42 31 -15 34 -15 82 7 43 20 66 24 154 24 57 0 103 3
103 8 0 17 -57 27 -160 27 -119 0 -130 5 -130 65 0 54 15 65 86 65 94 0 73 31
-37 54 -21 5 -29 15 -39 51 -7 25 -21 57 -32 70 -26 33 -14 38 109 43 69 3
103 8 100 16 -5 16 -56 23 -210 30 -119 6 -138 5 -143 -9z"/>
</g>
</svg>
