<!--?xml version="1.0" standalone="no"?-->              <svg id="sw-js-blob-svg" viewBox="0 0 100 100" xmlns="http://www.w3.org/2000/svg">                    <defs>                         <linearGradient id="sw-gradient" x1="0" x2="1" y1="1" y2="0">                            <stop id="stop1" stop-color="rgba(228, 117, 75, .3)" offset="0%"></stop>                            <stop id="stop2" stop-color="rgb(120, 210, 195)" offset="100%"></stop>                        </linearGradient>                    </defs>                <path fill="url(#sw-gradient)" d="M21.2,-39.3C25.9,-34.1,26.9,-25.1,23.4,-17.9C20,-10.7,12.1,-5.4,13.6,0.9C15.1,7.1,26.1,14.3,29.2,20.8C32.3,27.4,27.5,33.4,21.3,34.8C15.2,36.2,7.6,33.1,2.3,29.1C-3,25.1,-6,20.4,-8.9,17C-11.7,13.7,-14.4,11.8,-17.2,9.2C-19.9,6.6,-22.7,3.3,-25.1,-1.4C-27.6,-6.1,-29.6,-12.2,-28.3,-17.3C-27,-22.4,-22.3,-26.5,-17,-31.3C-11.8,-36.2,-5.9,-41.8,1.2,-43.9C8.3,-46,16.6,-44.5,21.2,-39.3Z" width="100%" height="100%" transform="translate(50 50)" stroke-width="0" style="transition: all 0.3s ease 0s;"></path>              </svg>